<?xml version="1.0" encoding="utf-8"?>
<!-- Generator: Adobe Illustrator 24.0.2, SVG Export Plug-In . SVG Version: 6.00 Build 0)  -->
<svg version="1.1" xmlns="http://www.w3.org/2000/svg" xmlns:xlink="http://www.w3.org/1999/xlink" x="0px" y="0px"
	 viewBox="0 0 300 300" style="enable-background:new 0 0 300 300;" xml:space="preserve">
<style type="text/css">
	.st0{display:none;}
	.st1{display:inline;}
	.st2{fill:#020203;}
	.st3{display:inline;fill:none;stroke:#000000;stroke-width:10;stroke-miterlimit:10;}
	.st4{display:inline;fill:none;stroke:#000000;stroke-width:6;stroke-miterlimit:10;}
	.st5{display:inline;fill:none;stroke:#000000;stroke-width:6;stroke-linecap:round;stroke-miterlimit:10;}
</style>
<g id="Decoracion" class="st0">
	<g class="st1">
		<path d="M0,135.45c0.39-1.39,0.81-2.77,1.17-4.16c0.84-3.29,2.36-6.22,4.39-8.93c2.22-2.95,4.85-5.43,8.11-7.18
			c3.07-1.65,6.34-2.83,9.84-2.64c2.7,0.14,4.13-1.32,5.06-3.37c1.37-3.03,2.56-6.15,3.63-9.3c0.79-2.32,1.22-4.76,1.9-7.12
			c0.88-3.07,1.84-6.12,2.78-9.17c0.57-1.86,1.09-3.73,1.76-5.55c1.63-4.43,3.97-8.45,7.08-12.02c2.92-3.36,6.16-6.36,9.94-8.72
			c2.93-1.83,5.91-3.51,9.24-4.63c3.11-1.04,6.21-1.82,9.47-2.31c5.62-0.84,11.24-0.42,16.86-0.43
			c41.59-0.06,83.18-0.03,124.77-0.02c2.32,0,4.67-0.2,6.96,0.07c4.12,0.49,8.17,1.19,12.14,2.65c6.88,2.53,12.71,6.46,17.72,11.69
			c3.44,3.58,6.31,7.57,7.94,12.33c1.23,3.58,2.45,7.17,3.61,10.78c0.96,3.01,1.84,6.04,2.74,9.08c0.83,2.83,1.46,5.74,2.51,8.49
			c0.83,2.17,2.1,4.18,3.28,6.2c0.53,0.91,1.51,1.17,2.58,1.3c2.62,0.32,5.36,0.42,7.81,1.28c4.02,1.41,7.44,3.96,10.19,7.27
			c2.31,2.79,4.05,5.92,5.24,9.34c0.39,1.11,0.5,2.32,0.78,3.48c0.09,0.38,0.33,0.72,0.51,1.08c0,2.24,0,4.48,0,6.72
			c-0.16,0.27-0.4,0.53-0.48,0.83c-0.46,1.68-0.76,3.41-1.36,5.04c-1,2.73-2.09,5.44-3.31,8.08c-1.89,4.06-3.74,8.15-5.94,12.04
			c-2.74,4.83-5.67,9.57-8.81,14.15c-4.4,6.42-9.5,12.26-15.21,17.58c-4.63,4.31-9.52,8.32-14.95,11.56
			c-3.98,2.38-8.16,4.44-12.35,6.45c-2.73,1.32-5.57,2.43-8.45,3.4c-2.43,0.83-4.96,1.35-7.46,1.96c-1.77,0.43-3.57,0.77-5.54,1.19
			c0.24,0.69,0.39,1.37,0.7,1.97c1.24,2.45,2.55,4.87,3.79,7.33c1.45,2.87,2.94,5.72,4.25,8.66c1.18,2.65-0.95,6.73-3.68,7.79
			c-3.65,1.42-6.77-0.49-8.29-3.37c-1.5-2.84-2.91-5.73-4.34-8.6c-1.9-3.81-3.81-7.61-5.62-11.47c-0.46-0.97-1.05-1.17-2-1.17
			c-12.4,0.02-24.81,0.01-37.21,0.01c-21.45,0-42.89,0.01-64.34-0.02c-1.16,0-1.85,0.26-2.39,1.39c-1.96,4.12-4.02,8.18-6.06,12.26
			c-1.36,2.72-2.7,5.44-4.12,8.12c-1.46,2.77-4.8,3.89-6.97,3.17c-4.57-1.52-5.4-5.05-4.7-7.83c0.47-1.83,1.56-3.51,2.42-5.24
			c1.26-2.53,2.55-5.05,3.83-7.57c0.73-1.44,1.46-2.88,2.18-4.33c0.15-0.3,0.23-0.63,0.37-1.04c-1.9-0.42-3.73-0.73-5.51-1.25
			c-3.77-1.08-7.54-2.15-11.24-3.45c-3.01-1.06-5.96-2.32-8.84-3.69c-5.2-2.47-9.97-5.63-14.6-9.06
			c-8.04-5.95-15.01-12.98-20.98-20.95c-3.42-4.57-6.69-9.28-9.65-14.16c-2.63-4.35-4.85-8.96-7.04-13.55
			c-1.57-3.29-2.87-6.72-4.15-10.14c-0.65-1.74-0.96-3.6-1.45-5.4c-0.11-0.4-0.32-0.78-0.48-1.17C0,139.24,0,137.34,0,135.45z
			 M149.89,149.93c13.99,0,27.99,0,41.98,0c16.1,0,32.21,0.01,48.31-0.03c0.55,0,1.37-0.26,1.61-0.66c1.88-3.16,3.84-6.3,5.4-9.62
			c1.76-3.76,3.19-7.68,4.66-11.57c1.63-4.31,4.64-7.47,8.21-10.16c2.03-1.54,1.96-1.38,0.89-3.58c-1.57-3.2-3.01-6.48-4.34-9.79
			c-0.96-2.38-1.66-4.87-2.47-7.32c-0.73-2.21-1.48-4.41-2.16-6.63c-0.85-2.79-1.47-5.66-2.49-8.38c-1.56-4.13-4.06-7.73-7.12-10.91
			c-2.5-2.6-5.49-4.55-8.75-6.04c-3.3-1.51-6.8-2.34-10.43-2.48c-1.98-0.08-3.96-0.04-5.94-0.04c-27.6,0-55.2-0.01-82.81-0.01
			c-19.29,0.01-38.58,0-57.87,0.1c-2.35,0.01-4.82,0.39-7.02,1.2c-2.91,1.07-5.86,2.38-8.34,4.21c-5.36,3.96-9.14,9.27-11.27,15.63
			c-1.09,3.24-1.91,6.56-2.94,9.82c-1.13,3.58-2.41,7.12-3.54,10.7c-1.2,3.84-2.8,7.5-4.92,10.89c-0.65,1.04-0.31,1.39,0.43,1.9
			c0.82,0.57,1.66,1.13,2.42,1.78c3.36,2.88,5.94,6.3,7.43,10.52c1.09,3.09,2.1,6.24,3.52,9.18c1.7,3.52,3.82,6.84,5.71,10.28
			c0.42,0.77,0.94,1.01,1.79,1.01C89.87,149.93,119.88,149.93,149.89,149.93z M12.38,137.81c0.59,1.99,1.34,5.19,2.48,8.24
			c1.37,3.65,2.88,7.28,4.68,10.73c2.29,4.4,4.84,8.68,7.43,12.92c3.22,5.25,7.02,10.08,11.16,14.65
			c6.08,6.71,12.91,12.53,20.74,17.07c3.42,1.99,7.04,3.65,10.65,5.28c2.14,0.97,4.41,1.67,6.67,2.33c2,0.58,4.06,1,6.1,1.4
			c3.05,0.6,6.1,1.39,9.19,1.6c5.51,0.38,11.04,0.44,16.57,0.54c4.07,0.08,8.14,0.02,12.21,0.02c3.77,0,7.54,0,11.31,0
			c3.94,0,7.88,0,11.83,0c3.94,0,7.88,0,11.83,0c3.86,0,7.71,0,11.57,0c3.9,0,7.8,0,11.7,0c3.68,0,7.37,0.04,11.05-0.01
			c4.49-0.06,8.99-0.19,13.48-0.32c2.23-0.07,4.48-0.09,6.69-0.37c2.87-0.37,5.71-0.93,8.55-1.53c2.53-0.54,5.1-1.05,7.53-1.91
			c3.2-1.13,6.29-2.6,9.43-3.91c4.7-1.97,8.92-4.77,13-7.75c9.12-6.66,16.58-14.96,23.04-24.17c2.08-2.96,3.92-6.11,5.7-9.26
			c1.89-3.33,3.72-6.71,5.31-10.19c1.45-3.17,2.57-6.49,3.76-9.77c1.1-3.03,2.07-6.03,1.17-9.4c-0.53-2-1.34-3.69-2.81-5.03
			c-3.73-3.4-8.18-4.39-13.06-3.56c-2.97,0.5-5.13,2.3-6.49,4.89c-1.01,1.92-1.56,4.08-2.43,6.08c-1.27,2.91-2.74,5.74-3.94,8.68
			c-2.17,5.31-5.37,10.03-8.48,14.77c-2.06,3.14-4.78,5.88-7.35,8.67c-4.45,4.81-9.48,8.94-15.28,12.05
			c-3.04,1.63-6.09,3.23-9.47,4.09c-2.65,0.67-5.23,1.71-7.91,2.19c-2.82,0.5-5.72,0.75-8.59,0.75
			c-32.43,0.05-64.86-0.02-97.28,0.09c-7.82,0.03-15.53-0.41-22.89-3.2c-3.55-1.34-6.98-3.08-10.29-4.94
			c-6.05-3.39-11.04-8.14-15.68-13.23c-3.38-3.71-6.21-7.86-8.87-12.11c-1.21-1.93-2.34-3.93-3.33-5.99
			c-1.76-3.66-3.41-7.38-5.04-11.1c-1.03-2.34-1.67-4.89-2.94-7.08c-1.88-3.26-4.93-5.09-8.76-5.01c-2.02,0.04-4.08,0.5-6.01,1.11
			C15.62,127.57,12.46,131.56,12.38,137.81z M230.26,163.13c-0.04-0.22-0.08-0.44-0.13-0.66c-17.78,0.24-35.55-0.04-53.33,0.18
			c-17.82,0.22-35.65-0.17-53.47-0.19c-17.82-0.03-35.64,0.07-53.73,0.11c0.29,0.47,0.35,0.63,0.46,0.72
			c4.26,3.45,8.67,6.59,13.87,8.56c3.2,1.21,6.44,2.13,9.79,2.59c2.63,0.36,5.32,0.4,7.99,0.43c6.11,0.05,12.23,0.01,18.34,0.01
			c6.63,0,13.26-0.01,19.89-0.01c4.95,0,9.9,0,14.85,0c6.76,0,13.52,0,20.28,0c4.95,0,9.9,0.01,14.85-0.01
			c7.86-0.02,15.78,0.53,23.42-2.02c1.82-0.61,3.63-1.31,5.36-2.15c2.02-0.99,4.01-2.07,5.89-3.3
			C226.57,166.08,228.38,164.55,230.26,163.13z"/>
		<path d="M124.86,106.56c-1.46,0.29-2.75,0.51-4.02,0.8c-1.32,0.31-2.61,0.79-3.94,1.02c-1.85,0.32-3.74,0.43-5.6,0.73
			c-5.85,0.95-11.75,0.65-17.62,0.42c-3.95-0.16-7.88-0.94-11.8-1.56c-2.21-0.35-4.38-0.92-6.76-1.43c0,0.66,0,1.16,0,1.67
			c0,7.71-0.07,15.41,0.03,23.12c0.05,3.71-3.57,6.7-6.78,6.34c-2.98-0.34-5.88-2.32-5.91-6.45c-0.07-8.35-0.18-16.7,0.04-25.05
			c0.13-4.71,2.23-8.68,6.61-10.89c2.91-1.47,6.02-1.97,9.34-1.03c3.06,0.86,6.23,1.31,9.35,1.94c5.28,1.07,10.64,1.31,15.98,0.97
			c3.77-0.24,7.5-1.03,11.27-1.49c3.62-0.44,7.01-2.1,10.77-1.87c4.91,0.3,9.12,3.38,10.84,8.03c0.74,1.99,1.07,3.99,1.06,6.11
			c-0.05,7.79,0.04,15.58-0.05,23.38c-0.04,3.71-2.92,6.39-6.41,6.36c-3.51-0.03-6.32-2.68-6.37-6.45
			c-0.1-7.66-0.03-15.33-0.03-22.99C124.86,107.73,124.86,107.22,124.86,106.56z"/>
		<path d="M175.17,106.54c0,0.7,0,1.21,0,1.71c0,7.66,0.04,15.33-0.02,22.99c-0.03,3.79-3.04,6.49-6.61,6.44
			c-2.31-0.03-5.08-1.73-5.72-4.43c-0.25-1.07-0.47-2.17-0.48-3.26c-0.04-7.49,0-14.98-0.03-22.47c-0.02-4.02,1.39-7.46,4.08-10.36
			c1.46-1.57,3.32-2.52,5.47-2.81c1.47-0.2,2.95-0.56,4.41-0.5c1.36,0.05,2.71,0.55,4.06,0.85c2,0.45,3.98,0.99,5.99,1.34
			c5.8,1.01,11.66,1.52,17.53,1.12c3.77-0.26,7.52-0.93,11.26-1.54c3.26-0.52,6.48-1.64,9.74-1.73c5.2-0.14,9.14,2.21,11.4,7.18
			c0.82,1.8,1.31,3.57,1.32,5.51c0.01,8.09-0.1,16.19,0.05,24.27c0.08,4.41-3.79,6.99-6.54,6.83c-3.03-0.18-6.1-2.49-6.1-6.06
			c0-7.84,0-15.67,0-23.51c0-0.46,0-0.92,0-1.59c-1.5,0.31-2.83,0.54-4.14,0.85c-1.32,0.31-2.61,0.77-3.95,1
			c-1.9,0.32-3.82,0.44-5.73,0.74c-6.33,0.99-12.7,0.59-19.04,0.39c-3.43-0.11-6.84-0.91-10.25-1.51
			C179.69,107.62,177.53,107.06,175.17,106.54z"/>
	</g>
</g>
<g id="electronica" class="st0">
	<g id="Layer_1" class="st1">
		<path class="st2" d="M0,228.13h143.75v18.75h-75v12.5h162.5v-12.5h-75v-18.75H300V40.63H0V228.13z M12.5,53.13h275v162.5h-275
			V53.13z"/>
	</g>
</g>
<g id="restauracion" class="st0">
	<g class="st1">
		<path d="M300,159.66c-0.77,5.46-1.39,10.95-2.34,16.38c-5.05,28.73-17.56,53.84-37.36,75.21c-24.15,26.07-53.94,42.06-89.15,46.71
			c-46.45,6.14-87.57-6.57-122.3-38.15c-26.38-23.98-42.05-54.05-46.94-89.33C-7.73,101.02,31.34,35.37,96.16,10.04
			c13.38-5.23,27.24-8.5,41.61-9.5c0.86-0.06,1.7-0.35,2.54-0.54c6.63,0,13.26,0,19.89,0c0.94,0.19,1.88,0.44,2.82,0.57
			c6.05,0.87,12.19,1.35,18.16,2.63c30.94,6.68,57.32,21.58,78.85,44.81c19.94,21.51,32.58,46.72,37.63,75.66
			c0.93,5.34,1.57,10.74,2.34,16.1C300,146.41,300,153.03,300,159.66z M290.01,149.63C289.94,72.65,226.9,9.72,150.11,9.98
			C73.03,10.25,10.67,72.63,10.5,149.63c-0.17,76.83,62.8,139.86,139.72,139.83C227.14,289.43,290.09,226.47,290.01,149.63z"/>
		<path d="M172.46,188.47c0.6-13.03,1.16-26.07,1.83-39.1c0.1-2.04-0.4-3.25-2.22-4.48c-6.75-4.55-10.2-11.04-11.35-19.16
			c-1.81-12.71,1.49-24.53,5.61-36.2c3.12-8.83,11.6-14.55,20.6-14.64c10.29-0.1,18.53,5.07,22.18,14.88
			c3.6,9.65,6.41,19.56,6.08,30.09c-0.33,10.69-3.32,19.89-12.95,25.92c-0.71,0.44-1.08,1.96-1.05,2.96
			c0.4,10.61,0.92,21.21,1.39,31.81c0.7,15.66,1.51,31.32,2.02,46.99c0.29,8.88-6,15.92-14.51,16.9
			c-9.26,1.06-17.22-4.46-19.05-13.37c-0.35-1.69-0.31-3.49-0.23-5.23c0.54-12.45,1.14-24.9,1.72-37.35
			C172.5,188.47,172.48,188.47,172.46,188.47z M181.14,220.64c0.04,0,0.09,0,0.13,0.01c-0.13,2.04-0.32,4.08-0.38,6.12
			c-0.13,3.93,1.5,6.42,4.59,7.18c5.6,1.37,9.36-1.82,9.04-7.63c-0.33-6.03-0.63-12.06-0.91-18.09
			c-0.95-20.72-1.81-41.45-2.88-62.17c-0.21-4.01,0.85-6.66,4.69-8.34c5.9-2.59,8.48-7.56,9.28-13.8
			c1.39-10.8-1.64-20.83-5.12-30.77c-1.8-5.14-6.8-8.31-11.98-8.27c-5.2,0.04-10.31,3.24-11.85,8.41c-2.1,7.05-4.2,14.2-5.09,21.46
			c-1.25,10.14,0.21,19.6,11.44,24.22c2.23,0.92,2.66,3.2,2.56,5.48c-0.23,4.96-0.45,9.92-0.68,14.89
			C183.04,179.78,182.09,200.21,181.14,220.64z"/>
		<path d="M140.3,102.51c0,6.92-0.08,13.84,0.04,20.76c0.04,2.55-0.81,4.48-2.6,6.22c-3.64,3.53-7.25,7.09-10.73,10.77
			c-0.76,0.81-1.38,2.18-1.33,3.26c0.59,14.21,1.3,28.42,2,42.62c0.67,13.52,1.53,27.04,2.01,40.57
			c0.36,10.11-7.09,17.72-16.85,17.74c-9.73,0.03-17.22-7.54-16.89-17.7c0.43-13.43,1.3-26.86,1.96-40.28
			c0.71-14.3,1.44-28.6,2.03-42.91c0.05-1.15-0.67-2.61-1.5-3.48c-3.48-3.69-7.27-7.08-10.64-10.85c-1.25-1.4-2.34-3.52-2.36-5.33
			c-0.19-14.42-0.12-28.85-0.09-43.27c0.01-3.09,1.54-5.24,4.01-5.66c2.51-0.43,4.5,0.54,5.48,2.86c0.5,1.19,0.49,2.65,0.49,4
			c0.03,12.67,0.07,25.34-0.03,38.01c-0.01,2.03,0.58,3.45,2.03,4.83c3.53,3.35,6.88,6.91,10.39,10.28
			c1.97,1.89,2.83,4.03,2.68,6.78c-1.34,24.9-2.63,49.81-3.92,74.71c-0.18,3.41-0.37,6.81-0.44,10.22c-0.1,4.54,2.9,7.86,6.88,7.75
			c3.97-0.11,6.79-3.22,6.59-7.7c-0.72-15.77-1.54-31.53-2.33-47.29c-0.64-12.75-1.4-25.49-1.82-38.24
			c-0.06-1.89,0.97-4.21,2.24-5.69c3.04-3.54,6.42-6.81,9.88-9.96c2.11-1.92,2.93-3.95,2.9-6.82c-0.16-12.28-0.08-24.56-0.05-36.84
			c0-1.34-0.03-2.81,0.47-4c0.97-2.31,2.94-3.31,5.46-2.9c2.39,0.39,4.02,2.49,4.04,5.34C140.33,87.7,140.3,95.1,140.3,102.51z"/>
		<path d="M250.18,151.57c-0.49,25.2-9.91,48.6-28.72,68.14c-2.38,2.47-5.36,2.81-7.52,0.94c-2.29-1.98-2.42-5.05,0.1-7.72
			c7.34-7.78,13.53-16.33,17.92-26.1c6.69-14.88,9.13-30.43,7.43-46.66c-1.83-17.5-8.36-33.03-19.32-46.75
			c-0.42-0.53-0.84-1.08-1.2-1.65c-1.66-2.65-1.33-5.34,0.84-7.05c2.28-1.79,5.26-1.56,7.2,1.08c3.74,5.09,7.62,10.15,10.7,15.63
			C246.02,116.37,250.03,132.56,250.18,151.57z"/>
		<path d="M50.29,147.27c-0.25-17.11,5.91-37.41,18.73-55.66c1.98-2.81,4.89-3.51,7.33-1.9c2.49,1.64,2.98,4.68,0.89,7.7
			c-6.71,9.7-11.85,20.12-14.3,31.68c-6.45,30.49,0.33,57.62,21.1,81.07c0.84,0.95,1.74,1.85,2.52,2.84c2.12,2.7,2.05,5.31-0.12,7.3
			c-2.19,2.01-5.22,1.89-7.48-0.73c-4-4.64-8.15-9.21-11.57-14.27C56.61,189.38,51.05,171.68,50.29,147.27z"/>
		<path d="M172.86,62.55c-4.48-0.68-8.3-1.37-12.15-1.83c-13.12-1.58-25.98-0.31-38.56,3.78c-1.2,0.39-2.39,0.82-3.6,1.16
			c-3.11,0.86-5.57-0.38-6.49-3.21c-0.85-2.6,0.35-5.23,3.3-6.23c4.59-1.54,9.23-3.03,13.95-4.08c14.16-3.14,28.37-2.94,42.55,0.04
			c3.94,0.83,6.03,2.88,5.78,5.75C177.41,60.58,175.03,62.6,172.86,62.55z"/>
		<path d="M110.43,100.22c0,6.23,0.05,12.45-0.02,18.68c-0.04,3.76-2.2,6-5.41,5.79c-2.29-0.15-3.84-1.37-4.4-3.58
			c-0.3-1.21-0.34-2.5-0.35-3.76c-0.02-11.67-0.02-23.35-0.01-35.02c0-0.78-0.01-1.56,0.07-2.33c0.38-3.34,2.31-5.21,5.21-5.11
			c2.8,0.1,4.83,2.22,4.87,5.49C110.49,86.99,110.43,93.6,110.43,100.22z"/>
		<path d="M115.21,99.73c0-6.23,0.01-12.45-0.01-18.68c-0.01-2.27,0.56-4.24,2.61-5.51c2.73-1.68,6.4-0.23,7.23,2.91
			c0.29,1.11,0.35,2.31,0.35,3.47c0.02,11.97,0.02,23.93,0.01,35.9c0,0.68-0.02,1.36-0.11,2.04c-0.42,3.13-2.34,4.93-5.14,4.86
			c-2.72-0.07-4.73-2.06-4.91-5.14c-0.14-2.52-0.04-5.06-0.05-7.59C115.2,107.91,115.21,103.82,115.21,99.73z"/>
		<path d="M150.18,249.76c-3.63-0.24-7.24-0.39-10.82-0.73c-3.3-0.32-5.54-2.74-5.3-5.48c0.25-3,2.82-4.71,6.32-4.65
			c6.61,0.12,13.23,0.11,19.84-0.02c3.45-0.07,6.04,1.66,6.31,4.67c0.24,2.75-1.96,5.16-5.29,5.48
			C157.55,249.38,153.85,249.53,150.18,249.76z"/>
	</g>
</g>
<g id="alimentacion" class="st0">
	<g class="st1">
		<path d="M103.74,186.65c37.45,0,74.41,0,111.48,0c-0.45-2.49-2.03-3.34-4.21-3.62c-8.28-1.05-16.57-2.04-24.81-3.33
			c-1.47-0.23-3.6-1.61-3.83-2.79c-0.24-1.16,1.21-3.24,2.47-4.04c6.25-3.95,12.62-7.73,19.09-11.31c2.48-1.37,3.17-2.81,2.99-5.7
			c-1.05-16.58-0.12-32.96,5.92-48.71c5.59-14.58,16.07-24.66,29.55-31.84c14.26-7.6,29.56-11.71,45.64-13.11
			c2.65-0.23,4.09,0.73,4.94,3.27c5.81,17.26,8.53,34.9,6.19,53.05c-2.52,19.54-12.85,34.33-29.29,44.58
			c-8.92,5.56-18.59,9.94-28.09,14.51c-2.71,1.3-4.86,2.22-4.31,5.72c0.16,1-0.2,2.07-0.36,3.44c6.15,0,12.17,0,18.18,0
			c3.6,0,7.2,0.09,10.8-0.01c3-0.08,4.24,1.35,4.18,4.23c-0.7,35.06-15.31,62.53-44.94,81.56c-17.26,11.09-36.48,16.29-56.82,17.88
			c-21.39,1.67-42.28-0.5-62.27-8.48c-32.05-12.79-53.47-35.3-61.22-69.51c-1.55-6.85-1.63-14.03-2.39-21.05
			c-0.32-2.96,0.79-4.73,4.43-4.7c-4.84-5.71-8.09-11.91-9.28-19c-0.83-5-1.27-10.06-2.07-15.06c-1.53-9.57-4.79-18.58-9.09-27.22
			c-2.11-4.23-4.12-8.38-2.16-13.28c0.22-0.55-0.3-1.56-0.73-2.17c-1.22-1.72-2.66-3.3-3.87-5.03c-2.28-3.27-4.28-5.94-9.32-5.73
			C4.56,99.45,0.47,94.8,0.04,89.38c-0.47-5.96,2.85-10.43,8.81-12.24c1.2-0.36,2.52-1.35,3.14-2.42c3.03-5.28,8.91-7.56,14.39-5.34
			c5.41,2.19,8.42,8.14,6.52,13.79c-0.7,2.06-0.36,3.33,0.89,4.79c1.24,1.44,2.41,2.95,3.53,4.49c2.2,3.03,3.98,5.99,8.9,5.24
			c2.31-0.36,5.64,1.47,7.5,3.32c11.11,11.02,23.87,19.3,38.13,25.77c21.21,9.62,28.04,36.79,14.67,56.08
			C105.74,183.99,104.89,185.08,103.74,186.65z M261.04,212.99c-69.76,0-139.28,0-209.11,0c0.25,1.18,0.41,2.2,0.69,3.18
			c8.21,29.27,27.29,48.67,55.15,59.5c26.92,10.46,54.66,11.16,82.59,4.64c20.93-4.89,39.01-14.87,53.02-31.51
			C252.18,238.35,257.94,226.4,261.04,212.99z M291.65,121.56c-20.9-7.38-38.99-19.1-54.31-35.11
			c-9.52,6.69-15.78,15.32-19.39,25.97c-5.06,14.93-5.16,30.35-4.22,45.79c0.24,3.94-0.83,6.02-4.19,7.77
			c-4.53,2.35-8.81,5.16-14.04,8.27c5.98,0.85,10.94,2.02,15.92,2.13c4.96,0.11,7.62,2.48,9.83,6.5c2.46,4.48,4.15,4.89,9.25,3.34
			c0.28-2.39,0.79-4.8,0.79-7.21c0-3.37,1.51-5.09,4.66-6.2c11.19-3.95,21.79-9.14,31.57-15.94
			C279.85,148.3,288.71,137.31,291.65,121.56z M74.84,186.71c0-0.01,0-0.02,0-0.02c5.5,0,11,0.08,16.49-0.06
			c1.26-0.03,2.73-0.51,3.72-1.28c16.25-12.73,15.16-39.15-2.14-50.42c-3.15-2.06-6.72-3.49-10.16-5.09
			c-12.32-5.72-23.05-13.64-32.64-23.19c-3.21-3.2-5.28-3.29-8.91-0.71c-2.07,1.47-4.12,2.96-6.18,4.44
			c-5.26,3.8-5.65,5.29-2.73,11.04c6.29,12.36,10.43,25.42,11.44,39.24c0.7,9.58,4.03,17.62,10.9,24.18
			c1.07,1.02,2.86,1.75,4.34,1.81C64.26,186.84,69.55,186.71,74.84,186.71z M263.78,193.64c-71.74,0-143.01,0-214.6,0
			c0.42,4.3,0.81,8.35,1.21,12.44c70.83,0,141.34,0,212.04,0C262.89,201.89,263.32,197.92,263.78,193.64z M287.04,69.02
			c-15.72,1.75-30.16,6.23-43.92,13.76c14.21,14.67,30.62,25.13,49.7,31.9C293.87,98.9,292.09,83.92,287.04,69.02z M35.95,101.41
			c-3.5-4.53-6.74-8.82-10.1-13.01c-1.48-1.84-1.7-3.53-0.2-5.4c1.5-1.88,1.82-4.11,0.13-5.74c-1.11-1.07-3.39-2.04-4.62-1.6
			c-1.54,0.55-3.13,2.41-3.65,4.04c-1.13,3.56-1.58,3.95-5.43,4.12c-1.65,0.07-3.74,0.98-4.7,2.22c-0.76,0.99-0.68,3.44,0.05,4.59
			c1.33,2.08,3.77,2.76,6.17,1.75c3.12-1.32,5.12-0.26,7,2.3c2.84,3.89,5.95,7.59,9.02,11.45
			C31.75,104.55,33.68,103.11,35.95,101.41z"/>
		<path d="M115.76,68.84c-11.91-10.52-13.92-23.6-10.76-38.09c0.4-1.84,0.76-3.83,3.22-4.16c2.59-0.34,3.42,1.46,4.31,3.36
			c3.35,7.12,6.76,14.22,10.15,21.32c0.28-0.07,0.56-0.14,0.84-0.21c-0.56-5.48-1.1-10.96-1.7-16.44c-0.26-2.42-0.69-4.81-0.96-7.23
			c-0.22-1.93-0.41-4.3,1.9-4.76c1.4-0.28,3.56,0.55,4.62,1.63c10.1,10.34,15.9,22.1,11.39,36.99c-0.05,0.18,0.06,0.41,0.12,0.78
			c6.75,0.25,12.43,2.91,16.79,8.16c3.22,3.88,4.83,8.43,5,13.43c0.91,26.13,1.77,52.26,2.62,78.39c0.15,4.72-1.74,7.77-5.21,8.78
			c-3.76,1.09-6.99-0.48-9.4-4.62c-12.63-21.76-24.99-43.67-37.97-65.21C103.84,89.56,105.11,77.46,115.76,68.84z M113.99,91.98
			c2.44-0.67,4.78-1.29,7.12-1.95c2.11-0.59,3.58,0.17,4.18,2.22c0.61,2.1-0.41,3.5-2.38,4.16c-1.87,0.63-3.78,1.11-5.97,1.75
			c2.86,4.93,5.59,9.63,8.28,14.27c2.71-0.74,5.08-1.27,7.37-2.06c2.38-0.81,4.41-0.5,5.18,1.98c0.84,2.73-0.92,4.03-3.43,4.63
			c-1.79,0.43-3.52,1.06-5.55,1.69c2.42,3.92,4.62,7.48,6.85,11.09c3.29-0.94,6.33-1.79,9.36-2.66c2.2-0.63,4.18-0.36,4.84,2.09
			c0.65,2.41-0.8,3.69-3.07,4.3c-2.49,0.67-4.94,1.49-7.66,2.33c5.63,9.81,11.07,19.28,16.51,28.75c0.4-0.1,0.79-0.19,1.19-0.29
			c-0.76-22.14-1.51-44.27-2.28-66.79c-3.28,0.9-6.03,1.57-8.73,2.41c-2.36,0.73-4.59,0.94-5.36-1.97
			c-0.78-2.92,1.39-3.84,3.69-4.48c3.42-0.95,6.83-1.92,10.34-2.91c-0.18-2.82-0.29-5.35-0.51-7.88
			c-0.74-8.57-8.85-15.08-17.37-13.54c-4.75,0.86-9.47,2.2-13.99,3.89C115,75.86,111.17,84.46,113.99,91.98z M121.89,64.29
			c-3.61-7.07-7.22-14.15-10.83-21.22C110.59,52.27,114.43,59.27,121.89,64.29z M129.01,37.92c0.72,8,1.44,15.99,2.16,23.99
			C134.83,53.6,134.09,45.6,129.01,37.92z"/>
		<path d="M185.83,112.43c-8.28-0.02-14-7.56-12.18-15.96c0.19-0.89,0.23-2.19-0.27-2.8c-10.24-12.39-11.45-26.48-7.39-41.27
			c3.65-13.29,11.23-23.76,23.91-30.07c0.88-0.44,1.63-1.55,2.01-2.52c3.22-8.3,12.09-12.69,20.35-9.98
			c8.19,2.69,12.84,11.65,10.63,20.11c-0.35,1.33-0.13,3.14,0.52,4.34c10.58,19.56,5.56,45.87-11.77,59.78
			c-3.15,2.53-7,4.29-10.71,6c-1.57,0.73-2.48,1.24-2.97,3.07C196.46,108.85,191.55,112.45,185.83,112.43z M216.7,26.03
			c0.08-5.58-3.63-9.79-8.56-10.27c-5.41-0.53-9.33,2.56-10.61,7.82c-0.35,1.44-1.75,2.88-3.05,3.76c-2.68,1.83-5.92,2.92-8.38,4.98
			c-10.83,9.08-15.54,21.1-15.49,34.97c0.03,8.67,2.33,16.78,9.03,22.9c2.18,1.99,2.58,3.79,1.21,6.36c-1.24,2.33-1,4.73,0.87,6.75
			c1.77,1.92,4.02,2.34,6.38,1.49c2.54-0.92,3.88-2.89,3.8-5.61c-0.08-2.89,1.42-3.92,4.08-4.63c3.11-0.83,6.29-2.01,8.95-3.76
			c16.59-10.95,22.45-36.14,12.38-53.25c-1.96-3.34-3.34-6.29-0.99-9.9C216.7,27.07,216.66,26.23,216.7,26.03z"/>
		<path d="M96.55,58.35c-0.32,9.86-3.32,18.8-8.3,27.06c-1.49,2.48-1.68,4.35-0.07,6.82c4.04,6.19,7.8,12.56,11.77,18.8
			c1.35,2.12,2.08,4.14-0.38,5.75c-2.43,1.59-3.97-0.1-5.14-2.02c-4.62-7.57-9.15-15.19-13.83-22.72c-0.84-1.36-2.13-2.5-3.39-3.52
			c-5.34-4.28-11.31-7.93-16.01-12.81c-9.24-9.58-11.83-21.45-8.03-34.09c2.07-6.89,5.71-13.31,8.77-19.89
			c1.05-2.27,2.95-2.92,5.28-1.74c9.08,4.59,17.16,10.41,23.07,18.88C94.4,44.75,96.38,51.32,96.55,58.35z M82.08,81.31
			c13.97-23.19,8.27-41.65-15.72-53.87c-12.6,19.96-10.39,39.04,7.55,50.18c-0.45-1.19-0.86-2.14-1.16-3.12
			c-2.52-8.04-5.01-16.08-7.52-24.11c-0.69-2.21,0.05-3.89,2.18-4.52c2.2-0.66,3.62,0.59,4.28,2.7c0.13,0.4,0.11,0.84,0.24,1.24
			C75.31,60.3,78.7,70.81,82.08,81.31z"/>
		<path d="M143,171.49c0.02,6.66-5.9,12.62-12.54,12.62c-6.67,0-12.65-5.9-12.69-12.53c-0.04-6.83,5.89-12.73,12.77-12.72
			C137.24,158.87,142.98,164.68,143,171.49z M130.28,165.66c-3.3,0.06-5.75,2.55-5.72,5.84c0.02,3.34,2.75,5.93,6.13,5.79
			c3.27-0.13,5.61-2.69,5.52-6.04C136.12,167.94,133.64,165.6,130.28,165.66z"/>
		<path d="M36.45,61.6c-6.74,0.01-12.65-5.74-12.76-12.41c-0.11-6.79,5.85-12.83,12.68-12.84c6.63-0.02,12.51,5.87,12.58,12.6
			C49.02,55.58,43.09,61.59,36.45,61.6z M36.46,54.78c3.34-0.05,5.69-2.48,5.67-5.85c-0.02-3.3-2.49-5.77-5.77-5.78
			c-3.43-0.01-5.93,2.57-5.84,6.03C30.6,52.47,33.11,54.83,36.46,54.78z"/>
		<path d="M185.34,123.28c6.83,0.01,12.47,5.64,12.52,12.5c0.05,6.81-5.58,12.57-12.39,12.69c-6.87,0.11-12.63-5.71-12.6-12.73
			C172.89,128.81,178.43,123.27,185.34,123.28z M185.22,130.04c-3.28,0.06-5.8,2.62-5.76,5.85c0.04,3.24,2.64,5.82,5.85,5.81
			c3.31-0.01,6.07-2.81,5.97-6.07C191.18,132.49,188.48,129.99,185.22,130.04z"/>
		<path d="M267.57,36.96c-0.13,6.85-5.9,12.46-12.67,12.35c-6.93-0.12-12.44-5.97-12.3-13.06c0.13-6.76,5.97-12.26,12.86-12.09
			C262.31,24.32,267.71,30.03,267.57,36.96z M261.05,36.82c0.08-3.1-2.59-5.87-5.77-5.97c-3.19-0.1-5.97,2.43-6.14,5.59
			c-0.18,3.17,2.68,6.14,5.93,6.15C258.23,42.61,260.96,39.98,261.05,36.82z"/>
		<path d="M84.59,232.55c1.3,0.87,2.37,1.34,3.12,2.12c7.51,7.84,15.9,14.5,25.59,19.47c0.75,0.38,1.48,0.84,2.12,1.38
			c1.47,1.23,2.23,3.01,0.78,4.37c-0.97,0.91-3.24,1.58-4.27,1.06c-4.31-2.19-8.66-4.51-12.46-7.47
			c-5.81-4.52-11.26-9.54-16.68-14.54c-0.84-0.78-1.15-2.68-0.91-3.92C82.05,234.12,83.52,233.46,84.59,232.55z"/>
		<path d="M81.31,226.49c-1.18,1.34-1.81,2.65-2.8,3.02c-0.98,0.36-2.81,0.17-3.38-0.51c-1.66-2-3.08-4.28-4.15-6.66
			c-0.36-0.81,0.28-2.6,1.05-3.25c0.76-0.64,2.88-0.96,3.33-0.45C77.49,221,79.25,223.69,81.31,226.49z"/>
		<path d="M222.41,140.32c1.13-12.32,3.5-24.78,10.23-36.04c1.27-2.12,2.79-3.83,5.3-2.39c2.56,1.47,1.74,3.64,0.49,5.75
			c-5.54,9.37-7.91,19.7-9.04,30.39c-0.16,1.47-0.33,2.94-0.45,4.41c-0.18,2.19-1.14,3.76-3.5,3.61c-2.57-0.16-3.27-1.95-3.02-4.27
			C222.44,141.46,222.41,141.14,222.41,140.32z"/>
		<path d="M46.32,140.71c0.84-0.71,1.88-2.21,3.22-2.55c2.05-0.51,3.34,1.08,3.72,3.02c0.78,4.03,1.72,8.07,1.99,12.15
			c0.55,8.3,2.35,16.04,8.01,22.47c1.4,1.59,1.41,3.35-0.22,4.76c-1.76,1.54-3.73,1.23-4.92-0.63c-2.49-3.88-5.68-7.68-6.8-11.98
			C49.07,159.34,48.02,150.42,46.32,140.71z"/>
		<path d="M50.8,131.65c-1.03,1.02-1.86,2.49-2.98,2.77c-1.01,0.24-2.9-0.52-3.4-1.4c-1.17-2.06-2.07-4.42-2.42-6.75
			c-0.16-1.03,1.03-2.82,2.06-3.31c0.85-0.41,2.99,0.22,3.48,1.04C48.86,126.19,49.61,128.74,50.8,131.65z"/>
		<path d="M264.46,81.36c2.72,0.07,5.01,2.48,4.88,5.13c-0.13,2.64-2.69,4.98-5.27,4.82c-2.49-0.15-4.75-2.57-4.73-5.04
			C259.36,83.6,261.77,81.3,264.46,81.36z"/>
		<path d="M176.41,70.05c0.14-12.18,4.06-22.94,11.67-32.41c1.5-1.87,3.08-3.55,5.5-1.73c2.39,1.8,1.42,3.79-0.15,5.72
			c-5.89,7.23-9.33,15.51-10.05,24.8c-0.27,3.44,0.08,6.94,0.3,10.41c0.15,2.33,0.41,4.71-2.71,5.05c-3,0.32-3.66-1.93-3.92-4.28
			C176.77,75.09,176.62,72.57,176.41,70.05z"/>
	</g>
</g>
<g id="moda" class="st0">
	<g class="st1">
		<path d="M68.51,299.97c-4.9-1.65-9.52-3.96-11.86-8.76c-1.49-3.05-2.64-6.63-2.66-9.99c-0.19-33.27-0.12-66.55-0.1-99.82
			c0.01-11.89,7.77-19.51,19.63-19.51c50.94,0.03,101.88,0.03,152.82,0.01c11.9,0,19.64,7.59,19.65,19.5
			c0.01,32.98,0,65.96,0.01,98.95c0,9.89-4.4,15.97-13.91,19.16c-0.26,0.09-0.48,0.31-0.72,0.47
			C177.09,299.97,122.8,299.97,68.51,299.97z M150.17,174.02c0,0,0,0.01,0,0.01c-25.28,0-50.56,0.01-75.84,0
			c-6.4,0-8.26,1.77-8.26,8.05c-0.01,28.4-0.02,56.81-0.02,85.21c0,4.88-0.04,9.76,0.07,14.64c0.08,3.54,2.08,5.58,5.58,5.9
			c1.26,0.11,2.53,0.09,3.8,0.09c35.14,0.02,70.28,0.04,105.42,0.05c15.23,0,30.45-0.01,45.68-0.03c4.97-0.01,7.24-2.08,7.24-6.73
			c0.02-33.38,0.02-66.76-0.01-100.14c0-4.95-2.24-7.05-7.23-7.05C201.12,174.02,175.64,174.02,150.17,174.02z"/>
		<path d="M153.46,0.03c6.03,1.36,11.74,3.35,16.43,7.66c6.45,5.93,9.81,13.23,9.93,21.96c0.05,3.55-2.15,5.92-5.33,6.19
			c-3.24,0.27-5.81-1.57-6.37-5.1c-0.7-4.36-1.42-8.59-4.44-12.13c-6.8-7.98-18.66-8.66-26.26-1.38c-7.26,6.96-7.2,18.56,0.29,25.57
			c3.2,2.99,6.63,5.77,10.08,8.47c5.92,4.62,8.95,10.53,8.08,18.07c-0.46,3.93,1.07,6,4.44,8.01c40.35,24.09,80.6,48.33,120.84,72.6
			c6.04,3.65,11.49,8,15.25,14.22c7.68,12.73,2.65,30.2-10.99,36.22c-4.43,1.95-9.48,2.77-14.34,3.4
			c-4.21,0.55-8.55,0.11-13.04,0.11c0-3.9,0-7.65,0-11.89c2.66,0,5.26,0.1,7.84-0.03c3.3-0.16,6.64-0.23,9.88-0.84
			c5.78-1.07,10.23-4.23,11.64-10.15c1.48-6.22-0.42-11.84-5.58-15.6c-6.69-4.86-13.67-9.37-20.75-13.64
			c-36.24-21.85-72.55-43.57-108.81-65.39c-1.59-0.96-2.75-1.15-4.44-0.13C108.55,109.89,69.25,133.45,30,157.11
			c-4.25,2.56-8.47,5.3-12.21,8.53c-9.48,8.18-7.08,21.43,4.48,25.04c3.1,0.97,6.52,1.07,9.8,1.28c3.19,0.21,6.4,0.04,9.8,0.04
			c0,4.08,0,7.83,0,11.85c-10.57,0.04-21.08,1.18-30.58-5.15c-12.57-8.37-15.13-26.76-5.26-38.26c6.12-7.13,14.17-11.57,22-16.28
			c37.67-22.7,75.39-45.3,113.15-67.86c2.14-1.28,2.65-2.69,2.92-5.06c0.67-5.83-2.02-9.54-6.39-12.8
			c-3.58-2.67-7.12-5.54-10.12-8.83c-8.15-8.93-9.71-19.44-5.48-30.5c3.99-10.42,11.94-16.56,22.97-18.61
			c0.46-0.09,0.9-0.31,1.34-0.48C148.78,0.03,151.12,0.03,153.46,0.03z"/>
	</g>
</g>
<g id="shoes" class="st0">
	<g class="st1">
		<path d="M151.02,214.08c-47.01,0-94.03,0-141.04,0c-4.97,0-6.08-0.8-6.9-5.55c-2.96-17.23-3.66-34.58-2.63-52.03
			c0.96-16.27,3.67-32.19,9.09-47.59c0.71-2.01,1.44-4.01,2.28-5.97c1.63-3.81,4.25-4.37,7.99-2.15
			c10.45,6.2,20.74,12.73,31.52,18.3c11.43,5.9,23.69,9.65,36.72,10.2c21.28,0.9,37.3-15.45,34.13-36.89
			c-0.37-2.49-0.06-4.46,2.19-5.8c2.3-1.37,4.19-0.46,6.14,1c26.47,19.74,55.17,35.31,86.64,45.44c12.66,4.08,25.76,6.8,38.49,10.69
			c11.83,3.61,22.82,9.04,31.7,18.01c8.31,8.4,12.16,18.71,12.61,30.29c0.22,5.64-0.27,11.31-0.63,16.95
			c-0.24,3.72-2.11,5.1-6.3,5.1C245.69,214.08,198.35,214.08,151.02,214.08z M171.55,124.5c-1.28,2.8-2.38,5.33-3.58,7.81
			c-0.85,1.75-2.44,2.93-4.08,1.68c-1.02-0.77-1.72-2.87-1.48-4.17c0.4-2.14,1.58-4.17,2.64-6.14c0.85-1.59,0.64-2.56-1.04-3.25
			c-0.78-0.32-1.51-0.8-2.23-1.24c-9.84-5.96-19.68-11.93-29.61-17.96c-0.19,0.95-0.46,2.06-0.63,3.19
			c-1.03,6.91-3.67,13.15-8.05,18.57c-11.25,13.9-26.28,17.43-43.16,15.16c-16.32-2.2-31.16-8.71-45.41-16.64
			c-5.45-3.03-10.74-6.34-16.6-9.82c-1.49,5.57-2.82,10.81-4.34,16c-0.49,1.68,0.1,2.38,1.35,3.37c5.61,4.43,11.39,8.71,16.54,13.63
			c10.9,10.4,19.38,22.48,23.03,37.37c0.67,2.73,1.6,3.54,4.37,3.53c35.69-0.09,71.38-0.05,107.07-0.05
			c17.42,0,34.83,0.04,52.25-0.07c1.32-0.01,3.53-0.77,3.82-1.67c3.85-11.92,7.42-23.92,11.14-36.16
			c-5.79-1.56-10.69-2.89-15.83-4.27c-1.1,2.44-2.13,4.76-3.19,7.06c-0.88,1.9-2.14,3.41-4.45,2.38c-2.26-1.01-2.16-2.94-1.32-4.9
			c0.92-2.13,1.89-4.24,2.92-6.54c-3.52-1.23-6.78-2.37-10.09-3.53c-1.24,2.73-2.32,5.16-3.43,7.58c-0.87,1.91-2.29,2.92-4.35,1.98
			c-2.06-0.94-2.21-2.64-1.34-4.58c1.08-2.39,2.11-4.8,3.22-7.35c-3.32-1.4-6.33-2.68-9.53-4.04c-1.15,2.48-2.25,4.78-3.27,7.11
			c-0.92,2.08-2.41,3.16-4.56,2.11c-2-0.97-2.04-2.77-1.17-4.67c1.09-2.37,2.12-4.77,3.22-7.26
			C177.24,127.24,174.48,125.91,171.55,124.5z M11.96,204.56c1.38,0,2.44,0,3.5,0c89.09,0,178.19,0,267.28,0.01
			c8.63,0,8.77-0.15,7.64-8.96c-0.01-0.09-0.12-0.16-0.34-0.44c-92.83,0-185.82,0-279.28,0C11.17,198.37,11.55,201.37,11.96,204.56z
			 M290.18,185.38c-1.66-3.81-2.85-7.32-4.64-10.49c-3.49-6.19-8.8-10.63-14.83-14.24c-9.77-5.84-20.45-9.19-31.28-11.74
			c-3.45,12.38-6.81,24.4-10.18,36.47C249.25,185.38,269.27,185.38,290.18,185.38z M49.43,185.54
			c-5.57-21.82-19.9-36.19-37.43-49.27c-0.74,7.36-1.72,13.9-1.99,20.48c-0.36,8.73-0.24,17.49-0.15,26.23
			c0.01,0.86,1.2,2.45,1.86,2.45C24.08,185.58,36.44,185.54,49.43,185.54z"/>
	</g>
</g>
<g id="toys" class="st0">
	<g class="st1">
		<path d="M234.58,147.61c6.34,0,12.27-0.03,18.2,0.01c2.99,0.02,6.02-0.06,8.97,0.35c9.38,1.31,16.85,9.89,17.02,19.38
			c0.08,4.39,0.04,8.78,0.02,13.16c-0.01,2.5-1.53,4.12-3.8,4.13c-2.34,0.01-3.87-1.63-3.88-4.24c-0.02-4,0.01-8-0.01-12
			c-0.04-7.44-5.66-13.1-13.07-13.1c-25.38-0.01-50.77-0.01-76.15,0c-7.41,0-13.09,5.67-13.09,13.09c-0.02,25.38-0.02,50.77,0,76.15
			c0.01,7.46,5.61,13.06,13.08,13.07c25.38,0.02,50.77,0.02,76.15,0c7.48-0.01,13.04-5.59,13.08-13.06c0.02-4.17,0-8.33,0.01-12.5
			c0.01-2.8,1.43-4.47,3.79-4.5c2.43-0.03,3.88,1.65,3.89,4.55c0.01,3.39-0.11,6.78,0.03,10.16c0.22,5.49-0.82,10.59-4.51,15.35
			c0.89,0,1.46,0,2.02,0c6.44,0,12.89-0.02,19.33,0.01c2.96,0.02,4.85,2.57,3.87,5.17c-0.58,1.54-1.71,2.43-3.4,2.49
			c-0.89,0.03-1.78,0.01-2.67,0.01c-96.26,0-192.52,0-288.78,0c-3.01,0-4.65-1.13-4.87-3.37c-0.25-2.45,1.49-4.29,4.16-4.3
			c7.17-0.03,14.33-0.01,21.5-0.01c0.6,0,1.21,0,2.14,0c-0.46-0.61-0.76-1.03-1.08-1.42c-3.7-4.55-5.73-9.74-5.74-15.62
			c-0.02-32.83-0.07-65.66,0.02-98.48c0.04-13.74,11.34-24.79,25.06-24.8c24.27-0.01,48.55,0,72.82,0c0.72,0,1.43,0,2.4,0
			c0-0.75,0-1.39,0-2.03c0-19,0-37.99,0-56.99c0-12.09,8.94-21.02,21.04-21.03c4.78,0,9.55-0.01,14.33,0
			c2.61,0.01,4.31,1.53,4.3,3.82c-0.01,2.23-1.79,3.84-4.32,3.85c-4.78,0.02-9.55-0.01-14.33,0.01
			c-7.79,0.02-13.32,5.56-13.32,13.33c0,18.94,0,37.88,0,56.82c0,0.66,0,1.32,0,2.21c0.75,0,1.39-0.01,2.04,0
			c5.49,0.09,11.02-0.19,16.47,0.37c11.73,1.2,21.26,12.03,21.5,23.89c0.04,1.94,0.01,3.87,0.01,6.05c0.69,0,1.28,0,1.86,0
			c15.77,0,31.55,0.01,47.32,0c7.87,0,13.47-5.54,13.47-13.37c0.02-25.33,0.02-50.66,0-75.99c-0.01-7.77-5.58-13.29-13.36-13.31
			c-4.83-0.01-9.66,0.01-14.5-0.01c-2.09-0.01-3.62-1.21-4.05-3.04c-0.39-1.7,0.49-3.56,2.13-4.26c0.64-0.27,1.39-0.34,2.1-0.35
			c5-0.03,10-0.04,15-0.01c11.2,0.05,20.34,9.18,20.35,20.37c0.02,24.83-0.05,49.66,0.05,74.48
			C239.19,137.66,238.37,142.83,234.58,147.61z M94.73,257.62c16.16,0,32.32,0.01,48.48,0c10.26-0.01,17.88-7.65,17.88-17.9
			c0-32.21,0-64.42,0-96.63c0-10.45-7.62-18.11-18.05-18.12c-32.1-0.01-64.2-0.01-96.3,0c-10.79,0-18.29,7.55-18.29,18.36
			c0,31.99,0,63.98,0,95.97c0,10.85,7.46,18.32,18.29,18.32C62.74,257.63,78.74,257.63,94.73,257.62z M163.88,255.2
			c-0.65,0.76-1.24,1.45-1.99,2.31c1.3,0,2.33,0,3.53,0C164.87,256.68,164.42,256,163.88,255.2z"/>
		<path d="M253.4,206.14c-0.02,18.42-15.07,33.4-33.57,33.4c-18.27,0.01-33.35-15.13-33.34-33.48c0.01-18.4,15.14-33.45,33.58-33.41
			C238.41,172.71,253.42,187.79,253.4,206.14z M245.7,206.18c0-14.16-11.61-25.83-25.71-25.84c-14.11-0.01-25.77,11.66-25.76,25.78
			c0.01,14.06,11.55,25.66,25.62,25.74C233.93,231.94,245.7,220.25,245.7,206.18z"/>
		<path d="M180.15,70.55c14.35,0.04,25.72,11.53,25.66,25.93c-0.06,14.18-11.6,25.52-25.94,25.49c-14.1-0.03-25.51-11.56-25.5-25.77
			C154.4,81.96,165.89,70.51,180.15,70.55z M180.16,78.26c-10.01-0.01-18.04,7.95-18.08,17.9c-0.03,9.96,7.99,18.11,17.87,18.14
			c10.05,0.03,18.18-8.03,18.17-18.02C198.11,86.3,190.11,78.27,180.16,78.26z"/>
		<path d="M278.8,206.06c0,1.72,0.04,3.44-0.01,5.16c-0.07,2.23-1.65,3.76-3.81,3.76c-2.13,0.01-3.8-1.55-3.84-3.75
			c-0.06-3.38-0.06-6.77,0-10.15c0.04-2.31,1.7-3.88,3.92-3.85c2.14,0.03,3.68,1.58,3.74,3.83
			C278.83,202.73,278.8,204.4,278.8,206.06z"/>
		<path d="M180.16,37.26c1.55,0,3.11-0.03,4.66,0.01c2.15,0.05,3.66,1.55,3.73,3.66c0.07,2.08-1.34,3.87-3.44,3.96
			c-3.32,0.13-6.66,0.13-9.98,0.01c-2.09-0.08-3.57-1.9-3.51-3.92c0.06-2.12,1.66-3.65,3.89-3.7c0.78-0.02,1.55,0,2.33,0
			C178.61,37.25,179.38,37.25,180.16,37.26z"/>
		<path d="M62.99,171.5c3.89,0,7.78-0.04,11.66,0.02c1.84,0.03,2.86-0.74,3.41-2.48c2.3-7.23,4.61-14.47,7.04-21.66
			c2.32-6.89,10.62-9.36,16.08-4.7c1.44,1.23,2.62,3.08,3.25,4.88c2.48,7.05,4.7,14.2,7.01,21.32c0.72,2.2,1.28,2.62,3.61,2.62
			c7.44,0.01,14.89-0.06,22.33,0.03c6.5,0.08,10.85,4.81,10.39,11.2c-0.24,3.27-1.98,5.68-4.59,7.56
			c-5.72,4.12-11.41,8.28-17.12,12.42c-2.88,2.09-2.92,2.21-1.8,5.65c2.19,6.75,4.4,13.49,6.57,20.24c1.51,4.7,0.12,9.11-3.68,11.81
			c-3.72,2.65-8.26,2.55-12.24-0.32c-5.98-4.33-11.95-8.68-17.92-13.02c-1.92-1.4-2.54-1.4-4.44-0.02
			c-6.11,4.44-12.18,8.93-18.33,13.3c-6.04,4.29-14.32,1.2-15.84-6.01c-0.39-1.85-0.14-4.02,0.41-5.86
			c2.11-7.06,4.47-14.04,6.74-21.05c0.72-2.24,0.52-2.83-1.4-4.22c-6.11-4.44-12.26-8.81-18.3-13.34
			c-6.24-4.68-5.23-14.33,1.81-17.4c1.52-0.66,3.33-0.84,5.01-0.91C56.1,171.4,59.55,171.5,62.99,171.5z M63.91,179.22
			c-3.78,0-7.55,0.03-11.33-0.01c-1.4-0.02-2.58,0.26-3.03,1.75c-0.45,1.47,0.35,2.37,1.48,3.19c5.99,4.31,11.95,8.66,17.91,13.02
			c4.37,3.2,5.69,7.33,4.03,12.42c-2.25,6.9-4.49,13.8-6.74,20.7c-0.45,1.37-0.85,2.7,0.57,3.77c1.42,1.07,2.57,0.34,3.75-0.53
			c5.87-4.29,11.76-8.55,17.64-12.83c4.36-3.17,8.73-3.22,13.06-0.08c5.98,4.33,11.95,8.66,17.91,13.02
			c1.16,0.85,2.27,1.43,3.61,0.41c1.24-0.95,1.09-2.13,0.66-3.45c-2.33-7.05-4.62-14.11-6.91-21.17c-1.58-4.86-0.17-9.17,3.96-12.17
			c5.97-4.34,11.93-8.69,17.92-13.01c1.16-0.83,2.12-1.71,1.62-3.28c-0.5-1.55-1.75-1.76-3.2-1.75c-7.27,0.04-14.55,0.02-21.82,0.02
			c-5.56,0-9.11-2.57-10.81-7.83c-2.25-6.96-4.48-13.92-6.79-20.86c-0.28-0.83-0.86-1.75-1.58-2.18c-1.49-0.9-2.94,0.05-3.63,2.18
			c-2.32,7.11-4.61,14.23-6.95,21.34c-1.55,4.7-5.2,7.34-10.13,7.36C71.35,179.24,67.63,179.22,63.91,179.22z"/>
	</g>
</g>
<g id="mobil" class="st0">
	<path class="st3" d="M211.39,297.98H86.11c-7.56,0-13.68-6.12-13.68-13.68V15.02c0-7.56,6.12-13.68,13.68-13.68h125.28
		c7.56,0,13.68,6.12,13.68,13.68V284.3C225.07,291.86,218.94,297.98,211.39,297.98z"/>
	<path class="st3" d="M192.67,247.58h-86.4c-7.56,0-13.68-6.12-13.68-13.68V64.7c0-7.56,6.12-13.68,13.68-13.68h86.4
		c7.56,0,13.68,6.12,13.68,13.68V233.9C206.35,241.45,200.22,247.58,192.67,247.58z"/>
	<circle class="st4" cx="151.39" cy="273.38" r="9.72"/>
	<line class="st5" x1="104.8" y1="118.23" x2="160" y2="62.82"/>
	<line class="st5" x1="136.61" y1="62.61" x2="102.07" y2="96.95"/>
	<line class="st5" x1="128.59" y1="29.18" x2="174.91" y2="29.18"/>
	<circle class="st1" cx="151.39" cy="15.98" r="4.8"/>
</g>
<g id="sports">
	<g>
		<path d="M167.36,114.64c-8.54,1.42-17.11,2.71-25.62,4.3c-6.6,1.24-13.12,2.88-19.68,4.33c-9.6,2.12-18.98-3.77-20.85-13.09
			c-1.43-7.15,3.5-16.46,10.84-18.66c19.78-5.93,39.8-10.96,60.65-11.01c14.83-0.04,28.84,3.68,39.92,13.69
			c13.56,12.25,29.15,13.64,45.86,11.03c6.49-1.01,12.91-2.73,19.24-4.53c9.03-2.56,18.44,1.69,21.39,10.02
			c2.93,8.28-1.79,18.44-10.41,21.61c-23.39,8.6-47.13,10.4-71.15,3.22c-5.68,9.81-11.39,19.69-17.26,29.84
			c3.08,1.77,6.64,3.47,9.83,5.71c7.19,5.06,14.3,10.24,21.22,15.67c3.5,2.74,5.63,6.5,6.81,11c5.45,20.78,10.2,41.6,10.18,63.29
			c-0.01,8.47-8.35,18.36-18.4,18.98c-9.33,0.57-17.83-6.86-18.56-17.01c-1.15-15.76-3.2-31.35-6.88-46.7
			c-0.43-1.78-1.86-3.99-3.43-4.73c-9.5-4.52-19.15-8.75-28.85-12.85c-0.84-0.35-2.76,0.58-3.5,1.48
			c-6.94,8.35-14.84,15.58-23.8,21.75c-12.15,8.36-24.59,10.19-38.74,4.91c-16.53-6.17-32.75-12.9-48.39-21.04
			c-7.88-4.1-11.7-12.56-9.77-21.09c1.72-7.59,9.23-14.18,17.38-14.05c3.98,0.06,8.11,1.69,11.85,3.34
			c12.28,5.44,24.43,11.17,36.57,16.91c2.59,1.23,4.56,0.96,6.44-1.17c3.98-4.51,8.49-8.64,11.95-13.51
			c12.71-17.88,24.14-36.56,33.76-56.31c0.7-1.43,1.31-2.91,1.97-4.37C167.75,115.28,167.55,114.96,167.36,114.64z M184.07,104.25
			c-1.1,2.7-1.97,4.96-2.92,7.18c-9.63,22.45-22,43.36-35.48,63.68c-6.72,10.13-14.38,19.32-23.91,26.94
			c-1.87,1.49-3.41,1.87-5.62,0.86c-13.17-5.98-26.4-11.85-39.6-17.79c-2.43-1.09-4.72-2.5-7.17-3.52
			c-4.61-1.92-8.69-0.35-10.8,3.97c-2.03,4.16-0.59,8.64,3.59,10.98c1.72,0.96,3.51,1.79,5.27,2.67
			c16.19,8.06,32.59,15.6,50.19,20.16c3.88,1,7.42,0.78,11.15-0.68c12.23-4.79,21.76-13.07,30.17-22.86
			c2.81-3.28,5.15-8.48,8.55-9.31c3.56-0.87,8.27,2.2,12.25,4.02c9.78,4.48,19.45,9.17,29.11,13.91c3.06,1.5,4.61,4.1,5.37,7.6
			c3.52,16.33,6.5,32.71,7.12,49.46c0.19,5.18,3.67,8.26,8.47,8.17c4.93-0.09,7.87-3.16,8.11-8.51c0.08-1.74,0.11-3.48,0.06-5.22
			c-0.51-18.56-4.48-36.53-9.53-54.27c-0.84-2.94-2.59-6.23-4.94-8.03c-7.69-5.9-15.71-11.41-23.88-16.65
			c-4.83-3.1-10.17-5.39-15.61-8.22c11.41-14.58,21.61-29.55,26.92-47.24c0.72,0.13,1.09,0.11,1.38,0.25
			c24.05,11.91,48.32,9.21,72.62,0.96c4.78-1.62,6.04-4.25,4.64-8.12c-1.57-4.33-4.21-5.31-9.17-3.92
			c-5.46,1.53-10.95,3.04-16.52,4.03c-20.95,3.73-40.74,2.64-57.8-12.63c-9.62-8.61-21.71-11.65-34.55-11.38
			c-19.42,0.4-38.03,5.28-56.55,10.52c-3.4,0.96-4.61,3.74-3.73,7.16c1.1,4.3,3.61,5.79,8.47,4.77c6.91-1.44,13.78-3.12,20.71-4.48
			C154.69,105.92,168.97,103.56,184.07,104.25z"/>
		<path d="M192.7,50.01c0.12-16.07,14.69-30.27,30.85-30.08c15.87,0.19,30.06,14.72,29.97,30.68
			c-0.09,15.62-14.69,30.18-30.22,30.15C206.95,80.71,192.58,66.28,192.7,50.01z M243.16,50.04c-0.36-12.17-8.79-20.23-20.78-19.86
			c-11.73,0.36-19.73,8.99-19.42,20.91c0.3,11.5,8.89,19.53,20.65,19.31C235.22,70.19,243.5,61.57,243.16,50.04z"/>
		<path d="M76.62,150.61c-15.53,0-31.05,0-46.58,0c-0.35,0-0.7,0.01-1.04,0c-3.68-0.12-6.07-2.25-5.98-5.35
			c0.08-2.97,2.36-4.91,5.96-4.92c13.33-0.03,26.65-0.03,39.98-0.03c18.08,0,36.15,0,54.23,0c0.7,0,1.39-0.02,2.09,0.02
			c3.33,0.19,5.35,2.12,5.38,5.12c0.02,2.98-2.03,5.05-5.35,5.12c-4.17,0.09-8.34,0.03-12.51,0.04
			C100.72,150.61,88.67,150.61,76.62,150.61z"/>
		<path d="M45.95,89.49c-12.64,0-25.27,0-37.91,0c-0.93,0-1.86,0.03-2.78-0.04C2.19,89.23,0.1,87.25,0,84.5
			c-0.1-2.79,2.15-5.16,5.34-5.27c3.94-0.14,7.88-0.05,11.82-0.05c22.72,0,45.44-0.01,68.16,0.05c1.45,0,3.44,0.07,4.23,0.95
			c1.24,1.38,2.39,3.53,2.28,5.27c-0.17,2.71-2.37,4.02-5.2,4.01c-8.23-0.02-16.46,0.02-24.69,0.03
			C56.61,89.5,51.28,89.49,45.95,89.49z"/>
		<path d="M87.46,59C74,59,60.54,58.99,47.09,59.02c-2.74,0.01-5.16-0.53-6.14-3.46c-1.18-3.51,1.12-6.6,5.24-6.76
			c5.21-0.19,10.44-0.09,15.66-0.09c21.81,0.01,43.62,0.04,65.43,0.07c1.04,0,2.1-0.04,3.12,0.14c2.79,0.49,4.31,2.24,4.28,5.05
			c-0.03,2.82-1.6,4.64-4.42,4.89c-3,0.26-6.03,0.19-9.04,0.19c-11.25,0.02-22.51,0.01-33.76,0.01C87.46,59.04,87.46,59.02,87.46,59
			z"/>
		<path d="M68.68,119.99c-4.29,0-8.58,0.05-12.87-0.02c-3.48-0.05-5.82-2.22-5.75-5.15c0.07-2.84,2.29-5.04,5.54-5.06
			c8.81-0.08,17.62-0.07,26.44,0.01c3.24,0.03,5.36,2.24,5.33,5.18c-0.03,2.95-2.12,4.96-5.47,5.02
			C77.49,120.05,73.09,119.99,68.68,119.99z"/>
	</g>
</g>
</svg>
