<?xml version="1.0" encoding="utf-8"?>
<!-- Generator: Adobe Illustrator 24.0.2, SVG Export Plug-In . SVG Version: 6.00 Build 0)  -->
<svg version="1.1" id="Capa_1" xmlns="http://www.w3.org/2000/svg" xmlns:xlink="http://www.w3.org/1999/xlink" x="0px" y="0px"
	 viewBox="0 0 180 180" style="enable-background:new 0 0 180 180;" xml:space="preserve">
<style type="text/css">
	.st0{fill:#E7343A;}
	.st1{fill:#F6F6F6;stroke:#FFFFFF;stroke-miterlimit:10;}
	.st2{fill:#F6F6F6;}
	.st3{fill:none;stroke:#F6F6F6;stroke-width:3;stroke-linecap:round;stroke-miterlimit:10;}
</style>
<g>
	<path class="st0" d="M76.33,174.27c-8.88-0.95-21.07,4.38-21.07,4.38s-27.76,9.71-32.91-22.85c-5.86-26.04,0.18-25.87-2.01-28.65
		c-3.53-4.48-8.64-10.06-8.64-19.65s1.07-25.69,25.33-44.75c1.89-21.07,7.93-58.36,24.15-59.19c11.01-1.07,9.23,10.06,21.43,9.47
		S99.42,0.37,106.4,0.01c6.98-0.36,15.15,8.17,15.15,8.17s19.55-2.38,23.2,2.84c16.1,23.02,13.97,62.98,10.3,73.99
		c-1.4,4.19,15.51,34.19,12.99,50.75c-2.81,18.46-3.64,45.32-30.15,40.52c-9.62-1.74-6.75-3.08-14.32-3.2
		C115.99,172.96,98.44,177.34,76.33,174.27z"/>
	<path class="st1" d="M51.74,20.9c0,0,5.31-4.65,12.84-6.75c6.13-1.7,0.6-9.73-4.97-7.12C54.14,9.6,50.32,15.76,51.74,20.9z"/>
	<path class="st1" d="M115.66,12.47c0,0-8.89-1.63-14.03-0.53c-2.49,0.53,1.95-7.81,5.5-7.99S115.58,9.9,115.66,12.47z"/>
	<path class="st2" d="M37.03,62.46c0,0,4.35,6.93,17.46,7.81c13.26,0.89,30.44,0.95,34.7,0.06c-5.56,2.19-7.36,3.49-10.56,10.06
		c-9.59,0.89-23.44,0.71-32.32-4.79s-10.3-12.07-10.3-12.07L37.03,62.46z"/>
	<path class="st2" d="M94.33,70.03c0,0,35.04-0.18,44.75-6.81c0.24,1.54-0.36,3.2-0.36,3.2s0.47,9.23-33.74,14.44
		C103.32,74.83,99.65,72.22,94.33,70.03z"/>
	<circle class="st2" cx="91.77" cy="83.01" r="11.01"/>
	<path class="st2" d="M90.42,106.83c1.42-0.71,4.62-1.78,3.91-4.85c-0.71-3.08-3.2-3.55-6.04-3.31
		c-2.84,0.24-35.63,6.04-33.86,36.58c1.78,30.54,22.26,35.75,41.91,34.45s40.6-10.65,40.72-36.11s-34.97-39.11-43.21-27.23
		c-0.32,0.76,1.37,1.32,3.34,0.25c4.17-3.33,34.36,2.35,35.13,27.45c0.95,30.85-36.93,31.73-36.93,31.73s-33.74,2.37-33.5-30.42
		C62.6,109.91,89,107.54,90.42,106.83z"/>
	<path class="st3" d="M125.87,7.94c0,0-6.04,4.44-3.2,9.77s7.81,10.3,11.72,16.51c3.91,6.21,5.68,19.53,4.26,29.3"/>
	<path class="st3" d="M29.28,91.22c0,0-5.33,16.87,0.53,23.79"/>
</g>
</svg>
